<svg xmlns="http://www.w3.org/2000/svg" viewBox="0 0 10.34 18.37"><defs><style>.cls-1{stroke:#1d1d1b;stroke-width:0.1px;}</style></defs><g id="Capa_2" data-name="Capa 2"><g id="Capa_4" data-name="Capa 4"><path d="M6.07,14.52l2.76-2.75a.63.63,0,0,0,0-.9.65.65,0,0,0-.91,0L5.17,13.62,2.42,10.87a.65.65,0,0,0-.91,0,.65.65,0,0,0,0,.9l2.76,2.75L1.51,17.28a.65.65,0,0,0,0,.9.65.65,0,0,0,.91,0l2.75-2.75,2.75,2.75a.65.65,0,0,0,.91,0,.63.63,0,0,0,0-.9Z"/><rect y="8.81" width="10.34" height="1.28" rx="0.64" transform="matrix(-1, 0, 0, -1, 10.34, 18.9)"/><path class="cls-1" d="M3.52,8.16a.46.46,0,0,1-.32-.11.42.42,0,0,1-.11-.3.37.37,0,0,1,.11-.29.46.46,0,0,1,.32-.1H5V.9h.49L3.84,2a.49.49,0,0,1-.28.06A.29.29,0,0,1,3.34,2a.72.72,0,0,1-.12-.21.44.44,0,0,1,.21-.47L5,.26A1.55,1.55,0,0,1,5.28.11.74.74,0,0,1,5.56.05a.39.39,0,0,1,.27.1.38.38,0,0,1,.1.3V7.36H7.3a.46.46,0,0,1,.32.1.37.37,0,0,1,.11.29.41.41,0,0,1-.11.3.46.46,0,0,1-.32.11Z"/></g></g></svg>