<svg xmlns="http://www.w3.org/2000/svg" viewBox="0 0 18.01 20.6"><g id="Capa_2" data-name="Capa 2"><g id="Capa_5" data-name="Capa 5"><path d="M0,8A6.75,6.75,0,0,1,.13,6.55,6.56,6.56,0,0,1,.91,4.41,4.36,4.36,0,0,1,4.26,2.17,32.92,32.92,0,0,1,8.59,2c1.4,0,2.81,0,4.21,0a8.83,8.83,0,0,0,3.64-.82A5,5,0,0,0,18,0a1.72,1.72,0,0,1,0,.56A6.81,6.81,0,0,1,16.9,3.7a4.25,4.25,0,0,1-3,1.83,4.62,4.62,0,0,1-1,.07c-.15,0-.18.05-.2.18-.11,1-.22,2-.34,3-.15,1.3-.31,2.6-.4,3.91a12.83,12.83,0,0,0,0,2.77,3.9,3.9,0,0,0,.18.67,2.31,2.31,0,0,0,2.75,1.39,3.69,3.69,0,0,0,2-1.28l.16-.19c.05.07,0,.13,0,.18a10.72,10.72,0,0,1-.78,2.34,3.73,3.73,0,0,1-4.77,1.71,3,3,0,0,1-1.64-2,9.71,9.71,0,0,1-.35-2.89c0-1.28.13-2.56.24-3.83s.25-2.81.39-4.22c.05-.55.11-1.09.18-1.64,0-.13,0-.18-.14-.18-1.22,0-2.44,0-3.66,0-.17,0-.21.06-.22.21,0,1-.09,1.89-.13,2.84-.11,2.64-.31,5.28-.63,7.9a10.62,10.62,0,0,1-.39,2.17,2.7,2.7,0,0,1-1.16,1.62,1.89,1.89,0,0,1-1.77.15,1.73,1.73,0,0,1-.95-1.87A4.35,4.35,0,0,1,2,16.72a25.44,25.44,0,0,0,1.44-2.61,13,13,0,0,0,1-3.72A33.05,33.05,0,0,0,4.6,5.94c0-.35,0-.36-.36-.34a5.74,5.74,0,0,0-2.86.93A3.94,3.94,0,0,0,.09,7.9Z"/></g></g></svg>