<svg xmlns="http://www.w3.org/2000/svg" viewBox="0 0 17.46 15"><g id="Capa_2" data-name="Capa 2"><g id="Capa_2-2" data-name="Capa 2"><path d="M17.26.55H8.76a.15.15,0,0,0-.07,0L8.63.6l0,0s0,.05,0,.08L6.24,11.87,4.7,7.17a.32.32,0,0,0-.11-.12l0,0L4.52,7s0,0-.08,0H.2a.2.2,0,0,0-.2.2V8.22a.2.2,0,0,0,.2.2H3.58l2,6.16a.24.24,0,0,0,.1.12h0a.18.18,0,0,0,.07.05l0,0,1,.21a.2.2,0,0,0,.23-.15L9.77,2h7.49a.2.2,0,0,0,.2-.2v-1A.2.2,0,0,0,17.26.55Z"/><path d="M14,9.92l2.76-2.76a.65.65,0,0,0,0-.9.65.65,0,0,0-.91,0L13.08,9,10.33,6.26a.65.65,0,0,0-.91,0,.63.63,0,0,0,0,.9l2.76,2.76L9.42,12.67a.63.63,0,0,0,0,.9.65.65,0,0,0,.91,0l2.75-2.75,2.75,2.75a.65.65,0,0,0,.91,0,.65.65,0,0,0,0-.9Z"/><path d="M2.86,6.56a4.08,4.08,0,0,1-1-.13,2.77,2.77,0,0,1-.91-.38.59.59,0,0,1-.25-.27.46.46,0,0,1,.11-.53.4.4,0,0,1,.26-.12.68.68,0,0,1,.35.08,3,3,0,0,0,.71.29,2.81,2.81,0,0,0,.71.08,1.89,1.89,0,0,0,.67-.1.91.91,0,0,0,.41-.33A1,1,0,0,0,4,4.62.78.78,0,0,0,3.74,4a1.47,1.47,0,0,0-.88-.22H2.28a.53.53,0,0,1-.39-.13.45.45,0,0,1-.13-.35.45.45,0,0,1,.13-.35.53.53,0,0,1,.39-.13h.47a1.43,1.43,0,0,0,.58-.11,1,1,0,0,0,.39-.33.87.87,0,0,0,.13-.5.76.76,0,0,0-.28-.64A1.29,1.29,0,0,0,2.77,1a2.59,2.59,0,0,0-.63.07,2.91,2.91,0,0,0-.64.29.47.47,0,0,1-.31.08A.37.37,0,0,1,.94,1.3.48.48,0,0,1,.8,1.06a.49.49,0,0,1,0-.29A.5.5,0,0,1,1.05.52,2.94,2.94,0,0,1,1.91.13a3.42,3.42,0,0,1,1-.13A2.93,2.93,0,0,1,4,.2a1.56,1.56,0,0,1,.72.58A1.59,1.59,0,0,1,5,1.69a1.67,1.67,0,0,1-.14.69,1.43,1.43,0,0,1-.41.53,1.44,1.44,0,0,1-.63.31V3.11a1.69,1.69,0,0,1,1,.54,1.63,1.63,0,0,1,.36,1.07,1.69,1.69,0,0,1-.28,1,1.74,1.74,0,0,1-.79.64A3.11,3.11,0,0,1,2.86,6.56Z"/></g></g></svg>