<svg xmlns="http://www.w3.org/2000/svg" viewBox="0 0 17.46 14.96"><g id="Capa_2" data-name="Capa 2"><g id="Raiz_cuadrada" data-name="Raiz cuadrada"><path d="M17.26.5H8.76a.15.15,0,0,0-.07,0s0,0-.06,0,0,0,0,0,0,0,0,.08L6.24,11.82,4.7,7.13c0-.06-.07-.09-.11-.13l0,0L4.52,7s0,0-.08,0H.2a.2.2,0,0,0-.2.2v1a.2.2,0,0,0,.2.2H3.58l2,6.17a.27.27,0,0,0,.1.11h0a.18.18,0,0,0,.07,0l0,0,1,.21a.19.19,0,0,0,.23-.15L9.77,2h7.49a.2.2,0,0,0,.2-.2V.7A.2.2,0,0,0,17.26.5Z"/><path d="M14,9.87l2.76-2.75a.65.65,0,0,0,0-.9.65.65,0,0,0-.91,0L13.08,9,10.33,6.22a.65.65,0,0,0-.91,0,.63.63,0,0,0,0,.9l2.76,2.75L9.42,12.63a.63.63,0,0,0,0,.9.65.65,0,0,0,.91,0l2.75-2.76,2.75,2.76a.65.65,0,0,0,.91,0,.65.65,0,0,0,0-.9Z"/><path d="M1.77,6.22a.56.56,0,0,1-.4-.13.48.48,0,0,1-.13-.37.63.63,0,0,1,.08-.29,1.38,1.38,0,0,1,.23-.29L3.29,3.28a3.41,3.41,0,0,0,.58-.76A1.59,1.59,0,0,0,4,1.83a.85.85,0,0,0-.27-.67A1.23,1.23,0,0,0,3,.94,2.46,2.46,0,0,0,2.38,1a2.31,2.31,0,0,0-.6.28.43.43,0,0,1-.29.09.38.38,0,0,1-.23-.11A.45.45,0,0,1,1.12,1a.54.54,0,0,1,0-.28A.54.54,0,0,1,1.34.51,2.92,2.92,0,0,1,2.18.13,3.31,3.31,0,0,1,3.11,0,2.79,2.79,0,0,1,4.22.2a1.47,1.47,0,0,1,.69.58,1.74,1.74,0,0,1,.24.93A2.22,2.22,0,0,1,5,2.43a3.11,3.11,0,0,1-.36.7,5.47,5.47,0,0,1-.62.76L2.42,5.59v-.3H5a.49.49,0,0,1,.36.12.44.44,0,0,1,.12.34.45.45,0,0,1-.12.34A.49.49,0,0,1,5,6.22Z"/></g></g></svg>