<svg xmlns="http://www.w3.org/2000/svg" viewBox="0 0 17.46 14.45"><g id="Capa_2" data-name="Capa 2"><g id="Capa_3" data-name="Capa 3"><path d="M17.26,0H8.76a.15.15,0,0,0-.07,0l-.06,0,0,0s0,.05,0,.08L6.24,11.32,4.7,6.62a.32.32,0,0,0-.11-.12l0,0-.05,0s0,0-.08,0H.2a.2.2,0,0,0-.2.2v1a.2.2,0,0,0,.2.2H3.58l2,6.16a.24.24,0,0,0,.1.12h0a.18.18,0,0,0,.07,0l0,0,1,.21a.2.2,0,0,0,.23-.15L9.77,1.45h7.49a.2.2,0,0,0,.2-.2V.2A.2.2,0,0,0,17.26,0Z"/><path d="M14,9.37l2.76-2.76a.65.65,0,0,0,0-.9.65.65,0,0,0-.91,0L13.08,8.47,10.33,5.71a.65.65,0,0,0-.91,0,.63.63,0,0,0,0,.9l2.76,2.76L9.42,12.12a.65.65,0,0,0,0,.91.67.67,0,0,0,.91,0l2.75-2.76L15.83,13a.64.64,0,1,0,.91-.91Z"/><path d="M1,6.08a.74.74,0,0,1-.55-.19A.8.8,0,0,1,.3,5.32V.78A.73.73,0,0,1,.49.22.73.73,0,0,1,1,0a.73.73,0,0,1,.54.2.73.73,0,0,1,.19.56V1.6l-.13-.3a2,2,0,0,1,.82-1A2.45,2.45,0,0,1,3.72,0,2.34,2.34,0,0,1,4.88.26a1.7,1.7,0,0,1,.69.8,3.53,3.53,0,0,1,.22,1.35V5.32a.8.8,0,0,1-.19.57.74.74,0,0,1-.55.19.76.76,0,0,1-.56-.19.81.81,0,0,1-.2-.57V2.48a1.57,1.57,0,0,0-.25-1,1,1,0,0,0-.8-.31,1.36,1.36,0,0,0-1.05.41,1.54,1.54,0,0,0-.39,1.1V5.32A.67.67,0,0,1,1,6.08Z"/></g></g></svg>